<svg id="Layer_1" data-name="Layer 1" xmlns="http://www.w3.org/2000/svg" viewBox="0 0 313.57 232.17"><defs><style>.cls-1{fill:#c4498d;}.cls-2{fill:#fff;}</style></defs><path class="cls-1" d="M107,81.54c30.28,48.14-4.18,55.2-37.06,59.28,48.68,10.5,61.48,31.73,18.23,56.38,67.42-23.13,81.47,5.71,69.24,32.78,29.7-24.39,45.49-39.48,66.72,6.09,5.15-31,17-41.14,71.14-23.44-62.93-44.67,32.3-37.56,50.57-34.7-44.5-15.43-54.22-29.4,0-45.27-60.26,4.25-50.57-15.46-14.1-40.7-43.76,16.09-73.84,13.41-48.62-26.33C246.94,96.7,229.53,100.33,226,55.14c-19,42.78-36.65,46.18-64.37,4.71C168.11,105.18,148.86,111.6,107,81.54Z" transform="translate(-54.49 -33.52)"/><polygon class="cls-1" points="198.08 1.11 191.78 38.33 219.08 0.56 198.08 1.11"/><polygon class="cls-1" points="114.79 225.51 139.99 188.85 133.69 232.17 114.79 225.51"/><polygon class="cls-1" points="9.8 208.84 90.29 169.96 21 228.84 9.8 208.84"/><polygon class="cls-1" points="234.48 52.21 285.58 2.22 313.57 13.89 234.48 52.21"/><polygon class="cls-1" points="246.38 161.08 282.08 191.07 301.67 178.29 246.38 161.08"/><polygon class="cls-1" points="51.1 13.33 83.99 44.44 67.89 0 51.1 13.33"/><polygon class="cls-1" points="1.4 56.66 51.1 79.43 0 74.98 1.4 56.66"/><polygon class="cls-1" points="218.38 221.62 203.68 181.07 247.78 215.51 218.38 221.62"/><path class="cls-2" d="M126.87,154.45l-4.56-71.19,28.31-.94,0,8.13,5.71-10.08,31.4-.35-21,33,22,30.07L161,150.21,152,140l.55,11.3Zm3.64-63.75L134,145.81l10.43-1.29-1.23-25.35-.25.44-.06-29.33Zm13,28.09,20.21,22.78,12.11-3.11-18.37-25.14L173.6,87.89,160.87,88Z" transform="translate(-54.49 -33.52)"/><path class="cls-2" d="M183.17,146.16l-7.45-63.3,31-4.23,2,64Zm1.09-56.68,5.65,48,11-1.5-1.54-48.55Z" transform="translate(-54.49 -33.52)"/><path class="cls-2" d="M212.39,143h-1.33l-3.56-.06-3.81-60,2.6-1a61.86,61.86,0,0,1,10.33-3.08,90.19,90.19,0,0,1,10.47-1.53,42.35,42.35,0,0,1,12.75.73,30,30,0,0,1,10.81,4.68,26,26,0,0,1,7.71,8.61,29.93,29.93,0,0,1,3.52,12.13,36.05,36.05,0,0,1-.78,11.73,30.79,30.79,0,0,1-4.21,9.66,31.19,31.19,0,0,1-7,7.49,44.24,44.24,0,0,1-8.92,5.25,58.39,58.39,0,0,1-10.3,3.4,79.16,79.16,0,0,1-11.16,1.74c-1.41.13-2.83.21-4.21.26C214.33,143,213.36,143,212.39,143Zm-.64-54.92,3,47.17H215c1.25,0,2.53-.12,3.81-.23a72.82,72.82,0,0,0,10.08-1.58,50.15,50.15,0,0,0,8.92-2.94,36.24,36.24,0,0,0,7.35-4.32,23.63,23.63,0,0,0,5.3-5.64,23.29,23.29,0,0,0,3.14-7.26,28.1,28.1,0,0,0,.58-9.2h0a22.25,22.25,0,0,0-2.57-9A18,18,0,0,0,246.2,89a22.24,22.24,0,0,0-8-3.44,34,34,0,0,0-10.41-.58,81.65,81.65,0,0,0-9.58,1.4A55.16,55.16,0,0,0,211.75,88.06ZM226,126.91l-.43-32.48,3.69-.21a15.93,15.93,0,0,1,6.31.79,12,12,0,0,1,4.8,3.11,13.48,13.48,0,0,1,2.82,4.75,21.41,21.41,0,0,1,1.1,5.28A15.84,15.84,0,0,1,241,119.44a18.17,18.17,0,0,1-4.42,4,18.77,18.77,0,0,1-5.85,2.42Zm7.39-24.48.18,13.59a9.32,9.32,0,0,0,1.31-1.36,8.05,8.05,0,0,0,1.73-5.85,13.85,13.85,0,0,0-.69-3.39,5.71,5.71,0,0,0-1.19-2A4.29,4.29,0,0,0,233.41,102.43Z" transform="translate(-54.49 -33.52)"/><path class="cls-2" d="M280.12,139.1a28.08,28.08,0,0,1-3.57-.23c-1.83-.22-3.72-.54-5.61-1s-3.67-.85-5.43-1.35-3.27-1-4.62-1.44l-2.7-.92.81-24.94,1.49.68a18.47,18.47,0,0,1-2.9-4.08,20.54,20.54,0,0,1-2.2-7.79A22,22,0,0,1,257,87.34,24.46,24.46,0,0,1,262.88,79a29.78,29.78,0,0,1,8.72-5.55A34.18,34.18,0,0,1,281.9,71c1.51-.13,3.08-.22,4.66-.25a50.41,50.41,0,0,1,9.76.75,31.16,31.16,0,0,1,4.77,1.25l2.61.92-.3,23.88.53.44a17.26,17.26,0,0,1,4.34,5.72,21.23,21.23,0,0,1,1.9,7.27h0a25.43,25.43,0,0,1-1.49,11.67,22.89,22.89,0,0,1-6.1,8.69,28.45,28.45,0,0,1-9.32,5.38A45.15,45.15,0,0,1,282.07,139C281.45,139.07,280.79,139.1,280.12,139.1Zm-14-10.4,1.56.46c1.59.45,3.24.87,4.92,1.23s3.32.64,4.92.83a19,19,0,0,0,3.93.12,37.33,37.33,0,0,0,9.27-1.94,20.63,20.63,0,0,0,6.8-3.89,14.83,14.83,0,0,0,4-5.78,17.62,17.62,0,0,0,1-8.14,13.64,13.64,0,0,0-1.18-4.62,9.48,9.48,0,0,0-2.4-3.18,10.69,10.69,0,0,0-3.69-2,14.77,14.77,0,0,0-5.07-.66,10.69,10.69,0,0,0-1.34.13l-2.37.33q-1.35.18-2.73.3a14.49,14.49,0,0,1-3.17,0,8.2,8.2,0,0,1-3.33-1.1,5.56,5.56,0,0,1-2.66-4.11,5.76,5.76,0,0,1,1-4.11A7.31,7.31,0,0,1,278,90.29a12.83,12.83,0,0,1,2.5-1c.78-.23,1.56-.42,2.32-.57s1.48-.26,2.17-.33l1.55-.16a37.92,37.92,0,0,1,7.13.1c.71.08,1.42.17,2.12.27l.12-9.34L295,79c-1.32-.24-2.69-.41-4.07-.52a41.28,41.28,0,0,0-4.16-.12c-1.42,0-2.82.11-4.17.23a26.44,26.44,0,0,0-8,2,21.91,21.91,0,0,0-6.45,4.09,16.58,16.58,0,0,0-4.05,5.72,14.3,14.3,0,0,0-1,7,12.82,12.82,0,0,0,1.34,4.87,10.29,10.29,0,0,0,2.8,3.4,11.33,11.33,0,0,0,4.17,2,16,16,0,0,0,5.57.41l1.4-.12c.66-.06,1.38-.09,2.18-.09s1.62,0,2.44.1a12.27,12.27,0,0,1,2.76.55,7.74,7.74,0,0,1,2.81,1.58,5.7,5.7,0,0,1,1.9,3.83,6,6,0,0,1-1.71,4.9,8.71,8.71,0,0,1-3.05,1.94,13.85,13.85,0,0,1-3.07.79c-.86.12-1.59.2-2.19.26a42.06,42.06,0,0,1-9.86-.36,39.88,39.88,0,0,1-4.22-.88Z" transform="translate(-54.49 -33.52)"/><path class="cls-1" d="M182.53,82.11l-18.61,29.21,20.17,27.61L164.2,144,149.44,127.4l.91,18.66-18,2.22-4-63.15,20.37-.68,0,18.73,11.79-20.83Z" transform="translate(-54.49 -33.52)"/><path class="cls-1" d="M204.89,81.17l1.78,56.3L188.39,140l-6.55-55.64Z" transform="translate(-54.49 -33.52)"/><path class="cls-1" d="M259.89,101.88a32,32,0,0,1-.68,10.47,26.87,26.87,0,0,1-3.68,8.46,27.18,27.18,0,0,1-6.16,6.56,39.78,39.78,0,0,1-8.13,4.78,53.6,53.6,0,0,1-9.61,3.17A75.87,75.87,0,0,1,221,137c-1.36.11-2.7.19-4,.24s-2.66.05-4,0l-3.4-53.67a57,57,0,0,1,9.68-2.89,86.42,86.42,0,0,1,10-1.46,37.85,37.85,0,0,1,11.58.66A25.84,25.84,0,0,1,250.28,84a22,22,0,0,1,6.57,7.34A26.11,26.11,0,0,1,259.89,101.88Zm-28.23,18.35a14.42,14.42,0,0,0,4.64-1.91,14.13,14.13,0,0,0,3.48-3.12,12.08,12.08,0,0,0,2.08-4,11.88,11.88,0,0,0,.46-4.58,17.31,17.31,0,0,0-.9-4.34,9.55,9.55,0,0,0-2-3.39,8.32,8.32,0,0,0-3.29-2.12,12,12,0,0,0-4.78-.56Z" transform="translate(-54.49 -33.52)"/><path class="cls-1" d="M308.18,109.41a21.53,21.53,0,0,1-1.23,9.91,18.75,18.75,0,0,1-5.07,7.23,24.25,24.25,0,0,1-8.06,4.63,40.89,40.89,0,0,1-10.23,2.15,23.13,23.13,0,0,1-4.72-.13q-2.6-.31-5.27-.89c-1.79-.39-3.51-.82-5.18-1.3s-3.14-.94-4.43-1.38l.52-16.29a31.65,31.65,0,0,0,8.48,2.48,37.57,37.57,0,0,0,8.95.33c.55-.05,1.21-.13,2-.24a9.81,9.81,0,0,0,2.21-.56,5.1,5.1,0,0,0,1.73-1.08,2.21,2.21,0,0,0,.58-1.84,1.86,1.86,0,0,0-.63-1.29,4,4,0,0,0-1.43-.79,8.84,8.84,0,0,0-1.92-.37c-.71-.06-1.39-.09-2.07-.09s-1.29,0-1.87.08l-1.4.12a19.91,19.91,0,0,1-6.9-.53,15.3,15.3,0,0,1-5.54-2.69,14.16,14.16,0,0,1-3.84-4.64,16.51,16.51,0,0,1-1.77-6.34A18.25,18.25,0,0,1,262.39,87a20.62,20.62,0,0,1,5-7,25.35,25.35,0,0,1,7.58-4.82,30,30,0,0,1,9.14-2.24c1.42-.13,2.89-.2,4.41-.24s3,0,4.55.13,3,.31,4.45.57a26,26,0,0,1,4.17,1.09l-.21,16.85a56.26,56.26,0,0,0-6.34-1,33.35,33.35,0,0,0-6.38-.1l-1.46.15c-.59.07-1.21.16-1.86.29a19.72,19.72,0,0,0-2,.47,9.4,9.4,0,0,0-1.74.71,3.53,3.53,0,0,0-1.18,1,1.88,1.88,0,0,0-.32,1.39,1.73,1.73,0,0,0,.84,1.34,4.55,4.55,0,0,0,1.8.57,11,11,0,0,0,2.37,0c.86-.07,1.7-.16,2.54-.28l2.34-.32a16.63,16.63,0,0,1,1.78-.18,18.91,18.91,0,0,1,6.39.86,14.74,14.74,0,0,1,5,2.76,13.29,13.29,0,0,1,3.37,4.46A17.09,17.09,0,0,1,308.18,109.41Z" transform="translate(-54.49 -33.52)"/><path class="cls-2" d="M114.57,217.31l-4.13-21.08,16.21-23.9-15.93,2.52-2.37-24.48,46.5-4,2.77,19.8-14.19,21.73,15.24-1.32,1.78,25Zm4.05-19.41,2.13,10.87,31.49-3.92-.71-9.92-23.22,2,21.28-32.57-1.36-9.69-31.46,2.71.83,8.58,25.41-4Z" transform="translate(-54.49 -33.52)"/><path class="cls-2" d="M182.68,207.94a31.74,31.74,0,0,1-5.55-.47,33.24,33.24,0,0,1-7.76-2.36,30.24,30.24,0,0,1-6.8-4.16,29.72,29.72,0,0,1-5.43-5.72,30.39,30.39,0,0,1-3.75-6.95,28.87,28.87,0,0,1-1.83-8,31,31,0,0,1,.35-8.1,31.73,31.73,0,0,1,2.36-7.63,32.17,32.17,0,0,1,4.18-6.77,30.79,30.79,0,0,1,13-9.5,30.52,30.52,0,0,1,8.41-1.92,38.31,38.31,0,0,1,13,1,29.43,29.43,0,0,1,10.73,5.22,27.79,27.79,0,0,1,7.46,9.08,32.35,32.35,0,0,1,3.38,12.15h0a32.24,32.24,0,0,1-.34,8.29,31.06,31.06,0,0,1-6.57,14.46,30.3,30.3,0,0,1-5.9,5.52,32.34,32.34,0,0,1-7.32,3.87,32.75,32.75,0,0,1-8.6,1.89C184.67,207.9,183.67,207.94,182.68,207.94Zm.93-54c-1,0-2,0-3.1.13a22.56,22.56,0,0,0-6.29,1.43,23.08,23.08,0,0,0-5.4,2.95,23.34,23.34,0,0,0-4.36,4.18,24.91,24.91,0,0,0-3.18,5.15,23.58,23.58,0,0,0-1.78,5.77,23.92,23.92,0,0,0-.27,6.1,21.25,21.25,0,0,0,1.35,5.89,22.9,22.9,0,0,0,2.81,5.21,22.11,22.11,0,0,0,4,4.24,22.6,22.6,0,0,0,5.1,3.11,25.1,25.1,0,0,0,12.5,2.07,25.07,25.07,0,0,0,6.55-1.44,24,24,0,0,0,5.55-2.92,22.73,22.73,0,0,0,4.41-4.12,23.43,23.43,0,0,0,4.95-10.9,24.6,24.6,0,0,0,.25-6.32h0a24.67,24.67,0,0,0-2.54-9.26,19.91,19.91,0,0,0-5.38-6.56,21.54,21.54,0,0,0-7.93-3.83A28.55,28.55,0,0,0,183.61,153.91Zm-1,36.88a10.75,10.75,0,0,1-4.47-.93,12.08,12.08,0,0,1-4.08-3,14.06,14.06,0,0,1-2.54-4.13,15.89,15.89,0,0,1-1.08-4.5,13.85,13.85,0,0,1,.44-4.86,12.42,12.42,0,0,1,2.22-4.36,12.25,12.25,0,0,1,3.78-3.13,13.07,13.07,0,0,1,5.09-1.47,11.61,11.61,0,0,1,5.43.78,11.77,11.77,0,0,1,4.07,2.77,13.27,13.27,0,0,1,2.61,4,14.67,14.67,0,0,1,1.13,4.57,14.27,14.27,0,0,1-.42,4.87,13.25,13.25,0,0,1-2.1,4.42,12.08,12.08,0,0,1-3.77,3.36,12.41,12.41,0,0,1-5.2,1.57A10.54,10.54,0,0,1,182.57,190.79Zm.5-18.71-.47,0a5.3,5.3,0,0,0-2.1.57,4.48,4.48,0,0,0-1.41,1.16,4.4,4.4,0,0,0-.82,1.63,5.92,5.92,0,0,0-.19,2.12,8.46,8.46,0,0,0,.56,2.31,6.37,6.37,0,0,0,1.14,1.86,4.29,4.29,0,0,0,1.49,1.09,3.4,3.4,0,0,0,1.75.22,4.61,4.61,0,0,0,2-.57,4.44,4.44,0,0,0,1.4-1.24,5.26,5.26,0,0,0,.87-1.85,6.13,6.13,0,0,0,.19-2.22A7,7,0,0,0,187,175a5.4,5.4,0,0,0-1.08-1.67,4.12,4.12,0,0,0-1.47-1A3.4,3.4,0,0,0,183.07,172.08Z" transform="translate(-54.49 -33.52)"/><path class="cls-2" d="M211,208.62l-.12-4.26q-.37-14.6-.81-29c-.29-9.54-.69-19.26-1.2-28.91l-.19-3.55,28.09-3.78.14,2.37a20.46,20.46,0,0,1,3.82-1.94,18,18,0,0,1,4.8-1.08,20.89,20.89,0,0,1,8.08.76,18.65,18.65,0,0,1,6.35,3.43,21.7,21.7,0,0,1,4.58,5.32,35.31,35.31,0,0,1,3,6.25,53.32,53.32,0,0,1,2,6.74c.5,2.29.9,4.57,1.2,6.79s.53,4.33.71,6.38l.47,5.47c.27,3.11.5,6.23.69,9.3s.35,6.17.47,9.27l.14,3.74-32.32,2.25,0,.65Zm5.75-59c.42,8.54.77,17.11,1,25.54q.38,12.33.71,24.78l14.31-1.83c-.21-3.64-.45-7.3-.69-10.9-.32-4.77-.63-9.64-.9-14.48,0-.64-.1-1.46-.14-2.45s0-2.19,0-3.34a31.82,31.82,0,0,1,.35-3.71,17.13,17.13,0,0,1,1.07-3.88,10.49,10.49,0,0,1,2.4-3.57,7.8,7.8,0,0,1,4.77-2.1,5.52,5.52,0,0,1,4.78,2.1,11.55,11.55,0,0,1,1.79,3.07,23.53,23.53,0,0,1,1.09,3.41c.27,1.13.5,2.24.68,3.29s.33,2,.44,2.88.17,1.47.2,1.85A116.24,116.24,0,0,1,249,185.5c-.16,3.45-.37,6.94-.64,10.41l16.86-1.17c-.08-1.8-.18-3.59-.29-5.36-.19-3-.42-6.07-.68-9.12h0l-.47-5.47c-.17-1.93-.39-4-.67-6s-.64-4.08-1.09-6.15a43.68,43.68,0,0,0-1.67-5.75A27.34,27.34,0,0,0,258,152a13.81,13.81,0,0,0-2.93-3.42,10.86,10.86,0,0,0-3.76-2,13.21,13.21,0,0,0-5.09-.43,10.2,10.2,0,0,0-2.72.61A12.73,12.73,0,0,0,241,148a13.39,13.39,0,0,0-2.21,1.85,23,23,0,0,0-2.07,2.46L230.35,161l-.79-13.15Zm22.69,13.11a9,9,0,0,0-.41,1.68,22.62,22.62,0,0,0-.27,2.81c0,1,0,1.89,0,2.76s.08,1.59.13,2.15v.11c.27,4.83.58,9.69.9,14.45.24,3.52.47,7.09.68,10.65.34-4.05.6-8.12.78-12.14a109.51,109.51,0,0,0-.3-14.25c0-.32-.08-.85-.17-1.59s-.22-1.55-.38-2.48S240,165,239.81,164C239.7,163.55,239.57,163.11,239.44,162.69Z" transform="translate(-54.49 -33.52)"/><path class="cls-2" d="M295.82,203.25a28.3,28.3,0,0,1-6.15-.64,27.28,27.28,0,0,1-14.17-7.93,31,31,0,0,1-4.7-6.4,37.34,37.34,0,0,1-3.09-7.37A40.29,40.29,0,0,1,266.2,173a44.22,44.22,0,0,1,.09-8.45,41.22,41.22,0,0,1,1.77-8.35,35.53,35.53,0,0,1,3.62-7.74,30.34,30.34,0,0,1,5.59-6.58,28.12,28.12,0,0,1,7.62-4.79,30.94,30.94,0,0,1,9.59-2.31,27.64,27.64,0,0,1,8.32.48,23.54,23.54,0,0,1,12.7,7.38,28.29,28.29,0,0,1,4.07,6,35.43,35.43,0,0,1,2.61,6.81,42.21,42.21,0,0,1,1.27,7.27,52.85,52.85,0,0,1,.11,7.76l-.19,3.13-3.1.46-1.5.22-.53,20.93L317,196.25a23.59,23.59,0,0,1-4.18,2.9,31.17,31.17,0,0,1-4.58,2,36.69,36.69,0,0,1-4.73,1.28,40.61,40.61,0,0,1-4.68.68C297.78,203.21,296.79,203.25,295.82,203.25Zm1.35-60.92c-.66,0-1.34,0-2,.09a23.47,23.47,0,0,0-7.21,1.71,20.32,20.32,0,0,0-5.55,3.48,22.53,22.53,0,0,0-4.17,4.91,27.45,27.45,0,0,0-2.82,6,33.57,33.57,0,0,0-1.44,6.77,37,37,0,0,0-.07,7,32.39,32.39,0,0,0,1.22,6.41,29.61,29.61,0,0,0,2.44,5.83,23.45,23.45,0,0,0,3.54,4.83,19.72,19.72,0,0,0,10.24,5.71,22.52,22.52,0,0,0,6.81.36,34.28,34.28,0,0,0,3.81-.55,30.08,30.08,0,0,0,3.75-1,22.6,22.6,0,0,0,3.41-1.5,15.48,15.48,0,0,0,1.52-.94l.25-9.54-.87.5a36.76,36.76,0,0,1-4.45,2.12,17.39,17.39,0,0,1-4.84,1.2,13.3,13.3,0,0,1-8.25-1.82,14.13,14.13,0,0,1-5.42-6l-2.11-4.38,4.74-1.06q7.26-1.62,14.52-3.26c3.87-.87,7.81-1.64,11.75-2.29,0-1.19-.06-2.38-.16-3.56h0a34.44,34.44,0,0,0-1-5.92,26.78,26.78,0,0,0-2-5.31,20.49,20.49,0,0,0-2.95-4.34,15.89,15.89,0,0,0-8.62-5A18.44,18.44,0,0,0,297.17,142.33Zm5.28,35.12-2.7.6.3,0A9.55,9.55,0,0,0,302.45,177.45Zm-17.68-7.23.74-5.26a24.32,24.32,0,0,1,.79-3.51,17.19,17.19,0,0,1,1.69-3.91,12.72,12.72,0,0,1,3-3.47,9.18,9.18,0,0,1,5.06-2,8,8,0,0,1,4.63.89,8.87,8.87,0,0,1,3,2.62,11.27,11.27,0,0,1,1.6,3.24,15.53,15.53,0,0,1,.62,3.15l.38,4.42ZM297,159.76s-.1,0-.29,0a1.5,1.5,0,0,0-.91.32,4.69,4.69,0,0,0-.47.42l2.08-.37,0-.05A1.14,1.14,0,0,0,297,159.76Z" transform="translate(-54.49 -33.52)"/><path class="cls-1" d="M155.45,163.41l-17.73,27.15L157,188.9l1.24,17.47-38.68,4.82-3.13-16,20.3-29.94L116,168.55,114.41,152l39-3.36Z" transform="translate(-54.49 -33.52)"/><path class="cls-1" d="M212.41,172.26a28.59,28.59,0,0,1-.29,7.3,27.16,27.16,0,0,1-5.77,12.69,26.45,26.45,0,0,1-5.15,4.81,27.63,27.63,0,0,1-6.44,3.4,29.33,29.33,0,0,1-22-.72,26.7,26.7,0,0,1-5.95-3.63,25.58,25.58,0,0,1-4.72-5,26.8,26.8,0,0,1-3.29-6.08,25,25,0,0,1-1.58-7,27.22,27.22,0,0,1,.3-7.1,28,28,0,0,1,5.75-12.66,26.76,26.76,0,0,1,18.73-10,34.44,34.44,0,0,1,11.67.86,25.52,25.52,0,0,1,9.33,4.52,23.73,23.73,0,0,1,6.42,7.82A28.38,28.38,0,0,1,212.41,172.26ZM193.18,175a11,11,0,0,0-.84-3.39,9.41,9.41,0,0,0-1.84-2.83,8.12,8.12,0,0,0-2.77-1.87,7.62,7.62,0,0,0-3.61-.5,9.13,9.13,0,0,0-3.6,1,8.39,8.39,0,0,0-2.6,2.15,8.2,8.2,0,0,0-1.51,3,9.68,9.68,0,0,0-.32,3.49,12.21,12.21,0,0,0,.82,3.41,10,10,0,0,0,1.84,3,8.28,8.28,0,0,0,2.78,2,7.21,7.21,0,0,0,3.67.55,8.57,8.57,0,0,0,3.61-1.07,8.29,8.29,0,0,0,2.58-2.3,9.33,9.33,0,0,0,1.49-3.13A10.33,10.33,0,0,0,193.18,175Z" transform="translate(-54.49 -33.52)"/><path class="cls-1" d="M269.89,178.08q.41,4.65.69,9.21c.18,3,.34,6.1.46,9.18l-25.1,1.75q.67-7.4,1-14.74a112,112,0,0,0-.31-14.75c0-.35-.09-.93-.19-1.72s-.23-1.69-.41-2.68-.38-2-.63-3.06a19.37,19.37,0,0,0-.9-2.84,8.2,8.2,0,0,0-1.19-2.08,1.75,1.75,0,0,0-1.49-.72,3.92,3.92,0,0,0-2.43,1,6.54,6.54,0,0,0-1.51,2.27,12.71,12.71,0,0,0-.82,3,27.85,27.85,0,0,0-.31,3.26c0,1.08,0,2.1,0,3.05s.08,1.72.14,2.33q.4,7.29.89,14.49t.91,14.53l-22.11,2.82q-.39-14.59-.82-29t-1.21-29L235,141.63l.4,6.6a27.12,27.12,0,0,1,2.4-2.86,16.84,16.84,0,0,1,2.84-2.38,16.57,16.57,0,0,1,3.3-1.69,13.93,13.93,0,0,1,3.76-.85,16.91,16.91,0,0,1,6.58.6,14.67,14.67,0,0,1,5.06,2.71,17.38,17.38,0,0,1,3.75,4.38,30.24,30.24,0,0,1,2.67,5.55,48.22,48.22,0,0,1,1.81,6.25c.48,2.18.87,4.34,1.15,6.47s.52,4.2.69,6.2S269.75,176.44,269.89,178.08Z" transform="translate(-54.49 -33.52)"/><path class="cls-1" d="M321.46,161.12a49.41,49.41,0,0,1,.1,7.2q-7.4,1.1-14.67,2.74t-14.53,3.26a10.26,10.26,0,0,0,3.95,4.43,9.57,9.57,0,0,0,5.92,1.27,13.38,13.38,0,0,0,3.75-.94,32.83,32.83,0,0,0,4-1.9c1.31-.74,2.56-1.51,3.75-2.33s2.2-1.56,3.05-2.21l-.48,18.85a19.53,19.53,0,0,1-3.49,2.42,26,26,0,0,1-4,1.75,33.12,33.12,0,0,1-4.23,1.16,38.15,38.15,0,0,1-4.25.61,26.59,26.59,0,0,1-8-.43,24.18,24.18,0,0,1-6.73-2.55,23.71,23.71,0,0,1-5.47-4.27,27.19,27.19,0,0,1-4.12-5.62,32.14,32.14,0,0,1-2.76-6.6,35.71,35.71,0,0,1-1.37-7.18,40.57,40.57,0,0,1,.08-7.71,36.85,36.85,0,0,1,1.61-7.56,30.51,30.51,0,0,1,3.22-6.89,26.53,26.53,0,0,1,4.87-5.75,24.43,24.43,0,0,1,6.59-4.13,27.1,27.1,0,0,1,8.4-2,23.5,23.5,0,0,1,7.15.4,20.64,20.64,0,0,1,5.95,2.3,19.78,19.78,0,0,1,4.71,3.89,24,24,0,0,1,3.52,5.15,31.4,31.4,0,0,1,2.31,6.06A37.09,37.09,0,0,1,321.46,161.12Zm-17.58-.64a11,11,0,0,0-.47-2.34,7,7,0,0,0-1-2.13,5,5,0,0,0-1.68-1.49,4.19,4.19,0,0,0-2.45-.43,5.38,5.38,0,0,0-3,1.15,8.83,8.83,0,0,0-2.09,2.41,13.52,13.52,0,0,0-1.32,3,19.62,19.62,0,0,0-.66,3L304,161.39Z" transform="translate(-54.49 -33.52)"/></svg>